HIERARCHY
ROOT Hips
{
    OFFSET 0.000000 0.000000 0.000000
    CHANNELS 6 Xposition Yposition Zposition Zrotation Xrotation Yrotation
    JOINT Spine
    {
        OFFSET -0.000000 0.079523 0.000000
        CHANNELS 3 Zrotation Xrotation Yrotation
        JOINT Spine1
        {
            OFFSET -0.000000 0.192445 0.000000
            CHANNELS 3 Zrotation Xrotation Yrotation
            JOINT Neck
            {
                OFFSET -0.000000 0.191655 0.017423
                CHANNELS 3 Zrotation Xrotation Yrotation
                JOINT Head
                {
                    OFFSET -0.000000 0.135771 -0.019396
                    CHANNELS 3 Zrotation Xrotation Yrotation
                    End Site
                    {
                        OFFSET -0.000000 0.242449 0.000000
                    }
                }
            }
            JOINT LeftShoulder
            {
                OFFSET 0.039141 0.175231 -0.001157
                CHANNELS 3 Zrotation Xrotation Yrotation
                JOINT LeftArm
                {
                    OFFSET 0.104248 0.000000 0.000000
                    CHANNELS 3 Zrotation Xrotation Yrotation
                    JOINT LeftForeArm
                    {
                        OFFSET 0.307569 0.000000 0.000000
                        CHANNELS 3 Zrotation Xrotation Yrotation
                        JOINT LeftHand
                        {
                            OFFSET 0.230447 0.000000 0.000000
                            CHANNELS 3 Zrotation Xrotation Yrotation
                            End Site
                            {
                                OFFSET 0.145469 0.000000 0.000000
                            }
                        }
                    }
                }
            }
            JOINT RightShoulder
            {
                OFFSET -0.038425 0.175231 -0.001157
                CHANNELS 3 Zrotation Xrotation Yrotation
                JOINT RightArm
                {
                    OFFSET -0.104248 0.000000 0.000000
                    CHANNELS 3 Zrotation Xrotation Yrotation
                    JOINT RightForeArm
                    {
                        OFFSET -0.307569 0.000000 0.000000
                        CHANNELS 3 Zrotation Xrotation Yrotation
                        JOINT RightHand
                        {
                            OFFSET -0.230447 0.000000 0.000000
                            CHANNELS 3 Zrotation Xrotation Yrotation
                            End Site
                            {
                                OFFSET -0.145469 0.000000 0.000000
                            }
                        }
                    }
                }
            }
        }
    }
    JOINT LeftUpLeg
    {
        OFFSET 0.096979 0.000000 0.000000
        CHANNELS 3 Zrotation Xrotation Yrotation
        JOINT LeftLeg
        {
            OFFSET -0.000000 -0.427459 0.000000
            CHANNELS 3 Zrotation Xrotation Yrotation
            JOINT LeftFoot
            {
                OFFSET -0.000000 -0.447558 0.000000
                CHANNELS 3 Zrotation Xrotation Yrotation
                JOINT LeftToeBase
                {
                    OFFSET -0.000000 -0.063037 0.145469
                    CHANNELS 3 Zrotation Xrotation Yrotation
                    End Site
                    {
                        OFFSET -0.000000 0.000000 0.038792
                    }
                }
            }
        }
    }
    JOINT RightUpLeg
    {
        OFFSET -0.096979 0.000000 0.000000
        CHANNELS 3 Zrotation Xrotation Yrotation
        JOINT RightLeg
        {
            OFFSET -0.000000 -0.427459 0.000000
            CHANNELS 3 Zrotation Xrotation Yrotation
            JOINT RightFoot
            {
                OFFSET -0.000000 -0.447558 0.000000
                CHANNELS 3 Zrotation Xrotation Yrotation
                JOINT RightToeBase
                {
                    OFFSET -0.000000 -0.063037 0.145469
                    CHANNELS 3 Zrotation Xrotation Yrotation
                    End Site
                    {
                        OFFSET -0.000000 0.000000 0.038792
                    }
                }
            }
        }
    }
}
MOTION
Frames:    11
Frame Time:    0.008333
-0.028481    0.904805    1.011969    -1.555864    18.556866    -118.079735    1.178454    2.531457    -0.062980    3.551077    6.841101    15.086978    -19.439077    19.590622    0.599461    22.009335    -12.089124    0.609877    -3.033835    13.094201    13.341252    -71.745239    22.479385    -2.460934    19.186907    -9.626855    -52.970451    8.164480    -9.761675    22.245054    0.644766    16.102800    -3.653742    65.731636    23.880219    6.299918    -28.468401    -11.988599    44.973999    -9.810320    -22.553814    -17.969456    19.847996    -9.209354    12.732900    1.332140    40.084660    -17.084629    0.535889    -15.476933    -5.667190    0.000000    0.000000    0.000000    13.438154    -73.207939    35.407619    125.761589    53.981544    -101.760414    0.264483    -12.466290    -24.320028    0.000000    0.000000    0.000000    
-0.029903    0.906276    1.011652    -0.874843    18.055574    -118.414688    1.265606    2.119920    -0.058233    3.384910    6.397528    15.289872    -19.417622    19.345684    0.554411    21.796381    -11.891760    0.269121    -3.096949    13.092382    13.509172    -72.229874    22.493792    -1.241108    20.283707    -10.224341    -53.144932    7.221495    -10.156153    22.349369    0.633020    16.077440    -3.726451    65.811775    23.970200    6.385481    -28.559322    -12.118468    45.279835    -9.608460    -22.086040    -17.830616    19.847984    -9.505127    13.142796    1.070982    39.541916    -16.785133    1.795633    -15.792636    -5.872950    0.000000    0.000000    0.000000    13.630807    -72.904472    35.419411    124.636986    54.140823    -100.971703    0.092710    -12.247105    -24.661249    0.000000    0.000000    0.000000    
-0.031953    0.907556    1.011444    -0.395157    17.604816    -118.679817    1.405865    1.824939    -0.054985    3.144845    6.022523    15.477616    -19.579653    19.404148    0.569808    21.917458    -12.121833    -0.060383    -3.154668    13.197549    13.674902    -72.642845    22.498646    -0.239801    21.265520    -10.749770    -53.239994    6.315338    -10.635040    22.528139    0.652279    16.084848    -3.867941    65.839996    24.096228    6.482224    -28.642342    -12.255859    45.620037    -9.062289    -21.546825    -17.619484    19.693577    -9.605504    13.358292    0.787226    38.976883    -16.587391    1.790572    -15.585809    -5.901241    0.000000    0.000000    0.000000    13.526121    -72.465782    34.731297    123.957504    54.659927    -100.750145    -0.012758    -12.029287    -24.995285    0.000000    0.000000    0.000000    
-0.034106    0.908804    1.011070    0.024613    17.199440    -118.908455    1.558047    1.523677    -0.051763    2.931088    5.778913    15.586397    -19.666742    19.405670    0.572685    21.870991    -12.368809    -0.317047    -3.245456    13.225211    13.849869    -72.998627    22.497553    0.593482    22.205908    -11.233033    -53.235916    6.133649    -11.205547    22.892406    0.614684    16.054068    -3.962689    65.906250    24.242105    6.594976    -28.686018    -12.359940    45.904606    -9.020682    -21.016438    -17.475901    19.524981    -9.640605    13.534003    0.577093    38.410282    -16.476725    1.798466    -15.407243    -5.869143    0.000000    0.000000    0.000000    13.378056    -71.969681    34.276020    123.030373    54.970829    -100.113518    -0.129104    -11.831890    -25.374754    0.000000    0.000000    0.000000    
-0.036191    0.910064    1.010743    0.468226    16.795055    -119.132935    1.710507    1.189783    -0.047409    2.723562    5.551651    15.663712    -19.577784    19.312666    0.553030    21.616863    -12.484366    -0.620411    -3.301543    13.255177    14.025814    -73.314369    22.492630    1.311447    22.979610    -11.571442    -52.993980    5.444125    -11.584991    22.900408    0.605083    16.077156    -4.068722    65.898941    24.399923    6.778690    -28.673876    -12.435098    46.174717    -8.793676    -20.542786    -17.287577    19.341475    -9.703345    13.638124    0.354212    37.830204    -16.246317    1.806506    -15.206667    -5.848970    0.000000    0.000000    0.000000    13.183012    -71.516937    33.740349    121.802254    55.356274    -99.271255    0.104022    -11.848438    -25.766815    0.000000    0.000000    0.000000    
-0.038404    0.910293    1.008437    0.491375    16.969145    -118.986656    1.881657    1.416831    -0.052977    2.853796    5.419988    15.456750    -19.445522    19.253799    0.538547    21.280998    -12.712869    -0.886446    -3.388343    13.298333    14.199404    -73.593262    22.485258    1.928653    23.705322    -11.870245    -52.706451    4.772148    -12.003010    22.845554    0.586599    16.008959    -4.188572    65.878029    24.532988    6.947304    -28.460518    -12.424537    46.461971    -8.993597    -19.521378    -17.525644    19.651779    -9.315152    13.503545    0.070326    37.559696    -16.649792    2.044345    -15.470872    -5.391920    0.000000    0.000000    0.000000    12.759885    -70.484940    32.424046    120.932091    55.737930    -98.803764    0.270378    -11.540850    -26.526861    0.000000    0.000000    0.000000    
-0.040741    0.911440    1.007918    0.763183    16.619282    -119.103333    1.978373    1.180947    -0.049064    2.679263    5.290407    15.410254    -19.408144    19.229486    0.533131    21.147266    -12.965388    -1.103149    -3.419999    13.403102    14.370965    -73.835793    22.476604    2.454853    24.250031    -12.090732    -52.485504    4.539497    -12.186261    22.839764    0.581883    15.932975    -4.242482    65.930717    24.750546    6.965000    -28.546890    -12.538884    46.714867    -8.816219    -19.537140    -17.016312    19.337748    -9.212335    13.382440    -0.061308    36.926910    -16.311323    2.020105    -15.323122    -5.408299    0.000000    0.000000    0.000000    12.404522    -69.852333    31.701202    119.700500    56.222523    -97.918449    0.185743    -11.232734    -26.852608    0.000000    0.000000    0.000000    
-0.043100    0.912685    1.007622    1.049863    16.201731    -119.240662    2.055390    0.891469    -0.043903    2.499055    5.172091    15.364176    -19.234989    19.214472    0.525602    20.788017    -13.228933    -1.254772    -3.501600    13.495548    14.518311    -74.057777    22.466885    2.926250    24.834669    -12.302405    -52.164486    4.291679    -12.410098    22.697094    0.519498    15.906882    -4.341461    65.975235    24.873344    7.089612    -28.364954    -12.543325    47.008453    -8.837402    -18.980049    -16.853508    18.913164    -9.135008    13.173305    -0.195028    36.236427    -15.782417    2.012928    -15.131577    -5.460543    0.000000    0.000000    0.000000    12.025024    -69.242012    31.088186    118.533707    56.622120    -97.024673    -0.588398    -10.974389    -27.201572    0.000000    0.000000    0.000000    
-0.045131    0.913937    1.007183    1.237437    15.826397    -119.269791    1.554318    0.569328    -0.036844    3.261973    5.263375    15.126011    -19.564358    19.573175    0.600273    20.727345    -13.879340    -1.344689    -4.015521    13.549767    14.462286    -74.265366    22.456272    3.358373    25.277508    -12.363088    -51.565502    5.076420    -12.897219    22.728628    0.317712    15.817444    -4.139566    65.755783    25.044552    7.018998    -28.376404    -12.569707    47.079716    -9.014421    -18.886881    -16.764914    18.435602    -9.058197    12.839059    -0.297028    35.580200    -15.454442    0.679093    -14.276985    -5.351246    0.000000    0.000000    0.000000    11.509103    -68.609879    30.409561    116.909874    57.063450    -95.789558    -4.528385    -15.430277    -28.114092    0.000000    0.000000    0.000000    
-0.047348    0.914953    1.006625    1.444773    15.492660    -119.340759    1.565500    0.401049    -0.033750    3.231519    5.138275    14.988535    -19.452187    19.600981    0.601816    20.451063    -14.152074    -1.472009    -4.091055    13.630421    14.558429    -74.457840    22.445139    3.753115    25.687710    -12.494108    -51.295776    4.929190    -13.172864    22.720512    0.284349    15.854090    -4.257316    65.686882    25.185921    7.218204    -28.122545    -12.530350    47.340508    -9.009927    -18.262964    -17.076727    17.999449    -8.929537    12.506283    -0.317445    34.944431    -15.323403    0.838554    -14.169405    -4.923385    0.000000    0.000000    0.000000    11.116970    -67.899811    29.689735    115.432503    57.594955    -94.681625    -4.516868    -15.245178    -28.225225    0.000000    0.000000    0.000000    
-0.049621    0.915863    1.006303    1.683577    15.072457    -119.437805    1.547979    0.127512    -0.029491    3.189042    5.069929    14.859085    -19.319952    19.503723    0.580095    20.150564    -14.242393    -1.639449    -4.169094    13.668191    14.612378    -74.638138    22.433599    4.119117    25.949120    -12.554478    -51.044979    5.445288    -13.324326    22.819355    0.310330    15.870275    -4.371327    65.582947    25.377472    7.348441    -28.005661    -12.550613    47.592415    -8.807266    -17.846186    -17.069305    17.409054    -8.897449    12.145753    -0.262003    34.301693    -15.400488    1.043876    -14.014023    -4.148153    0.000000    0.000000    0.000000    10.724196    -67.292412    29.216534    113.698830    57.996468    -93.302475    -5.807895    -14.570978    -28.471256    0.000000    0.000000    0.000000    
